<svg width="48" height="48" viewBox="0 0 48 48" fill="none" xmlns="http://www.w3.org/2000/svg">
<rect width="48" height="48" fill="#323238"/>
<g clip-path="url(#clip0_61385_216)">
<path d="M34.2857 13.625H13.7089C12.7661 13.625 12 14.3613 12 15.2652V34.7348C12 35.6387 12.7661 36.375 13.7089 36.375H34.2857C35.2286 36.375 36 35.6387 36 34.7348V15.2652C36 14.3613 35.2286 13.625 34.2857 13.625ZM19.2536 33.125H15.6964V22.268H19.2589V33.125H19.2536ZM17.475 20.7852C16.3339 20.7852 15.4125 19.9066 15.4125 18.8301C15.4125 17.7535 16.3339 16.875 17.475 16.875C18.6107 16.875 19.5375 17.7535 19.5375 18.8301C19.5375 19.9117 18.6161 20.7852 17.475 20.7852V20.7852ZM32.5875 33.125H29.0304V27.8438C29.0304 26.5844 29.0036 24.9645 27.1821 24.9645C25.3286 24.9645 25.0446 26.3355 25.0446 27.7523V33.125H21.4875V22.268H24.9V23.7508H24.9482C25.425 22.8977 26.5875 21.9988 28.3179 21.9988C31.9179 21.9988 32.5875 24.2484 32.5875 27.1734V33.125V33.125Z" fill="white"/>
</g>
<defs>
<clipPath id="clip0_61385_216">
<rect width="24" height="24" fill="white" transform="translate(12 11.9999)"/>
</clipPath>
</defs>
</svg>
